<svg id="Layer_1" data-name="Layer 1" xmlns="http://www.w3.org/2000/svg" viewBox="0 0 300 100"><defs><style>.cls-1{fill:#fff;}.cls-2{fill:#f15a24;}</style></defs><title>Logo - full - light</title><path class="cls-1" d="M151,49.23c0,14.07-10.64,23.58-24.88,23.58-8,0-14.82-3.17-19-9.15V89.44h-6.75V26.08h6.46v9.15c4.09-6.16,11-9.5,19.29-9.5C140.32,25.73,151,35.23,151,49.23Zm-6.74,0c0-10.74-8.08-18-18.62-18S107,38.49,107,49.23s8,18,18.62,18S144.22,60.05,144.22,49.23Z"/><path class="cls-1" d="M184.75,25.73V31.8c-.57,0-1.14-.09-1.61-.09-10.45,0-16.82,6.16-16.82,17.08V72.37h-6.74V26.08H166v9.07C169.17,29,175.54,25.73,184.75,25.73Z"/><path class="cls-1" d="M195.1,11.48A4.71,4.71,0,0,1,200,7.08c2.75,0,4.94,1.93,4.94,4.31a5,5,0,0,1-9.88.09Zm1.52,14.6h6.74V72.37h-6.74Z"/><path class="cls-1" d="M263.94,45.53V72.37h-6.75V46.15c0-9.77-5.51-14.79-15-14.79-10.74,0-17.48,6.16-17.48,16.72V72.37H218V26.08h6.46v8.54c3.61-5.63,10.36-8.89,19-8.89C255.58,25.73,263.94,32.24,263.94,45.53Z"/><path class="cls-1" d="M300,69.55c-2.57,2.2-6.55,3.26-10.45,3.26-9.4,0-14.63-4.93-14.63-13.46V16h6.75V26.08h15.1v5.28h-15.1V59c0,5.46,2.94,8.45,8.55,8.45a11.53,11.53,0,0,0,7.4-2.37Z"/><path class="cls-1" d="M4.71,100h0v0Z"/><path class="cls-1" d="M182.92.42V17.83c-10.27-.51-20.56-.92-30.87-1-11.05-.18-22.13-.06-33.19.23q-20.67.5-41.31,2.13c-12.83,1-26,1.79-38.45,5.15-1.91.51-3.8,1.1-5.66,1.75-1.65.58-5.18,1.57-5.65,3.4a.29.29,0,0,0,0,.16.29.29,0,0,0,.14.13c1,.64,2.78,0,3.91-.11,1.53-.18,3.08-.36,4.63-.52,11.09-1.15,22.39-1.56,33.45.14,7.11,1.09,14.61,3.56,18.9,9.26a18.19,18.19,0,0,1,3.68,10,18,18,0,0,1-.07,2.2c-.45,4.45-3.32,8.07-6.78,11a38.82,38.82,0,0,1-3.23,2.47c-1.06.74-2.13,1.44-3.24,2.11a72.82,72.82,0,0,1-6.66,3.52c-5,2.4-10.15,4.6-15.3,6.77-5,2.11-10,4.19-15,6.33-10.36,4.47-20.54,9.37-30.84,14l-1.56.7c-1.67.74-3.33,1.48-5,2.21l-.37.16L0,95.85c5.13-3.37,10.58-6.23,16-9.2,4.24-2.32,8.55-4.51,12.82-6.8,9.86-5.1,19.9-9.93,29.65-15.21,3.48-1.89,6.92-3.87,10.23-6,3.63-2.35,9.06-6,6-10.61-3.57-5.42-11.75-6-17.87-6.3-5.59-.29-11.23-.14-16.81-.13-5.8,0-11.57.65-17.38.51-2.17-.05-4.29-.23-6.42-.47a13.57,13.57,0,0,1-6-2.34A7.52,7.52,0,0,1,8.19,37c-1.34-2.32-.69-5.09.49-7.35A17.39,17.39,0,0,1,11,26.28a32.09,32.09,0,0,1,5.55-4.9c10.07-7.12,22.75-11,35-13.59C73.32,3.14,95.89,1.92,118.16.93c11.31-.51,22.63-.87,34-.9C162.38-.07,172.65.12,182.92.42Z"/><ellipse class="cls-2" cx="200.04" cy="9.35" rx="9.81" ry="9.09"/></svg>